<?xml version="1.0" ?><!DOCTYPE svg  PUBLIC '-//W3C//DTD SVG 1.1//EN'  'http://www.w3.org/Graphics/SVG/1.1/DTD/svg11.dtd'><svg height="512px" style="enable-background:new 0 0 512 512;" version="1.1" viewBox="0 0 512 512" width="512px" xml:space="preserve" xmlns="http://www.w3.org/2000/svg" xmlns:xlink="http://www.w3.org/1999/xlink"><g id="_x33_04_x2C__mountain_x2C__landscape_x2C__hill_x2C__nature_x2C__tree"><g><path d="M61.489,280.26l0.285-0.018l0.195,0.018h0.107h0.089h0.23h0.035h0.179    h0.177h0.035h0.23h0.089h0.125h0.444h0.125h0.087l0.214,0.018h0.053h0.16h0.195h0.037l0.212,0.018h0.107h0.105l0.231,0.018h0.018    l0.195,0.019h0.142h0.072l0.23,0.018h0.054l0.16,0.018l0.194,0.018h0.018l0.656,0.054h0.018l0.641,0.053l0.07,0.019    c1.047,0.106,2.113,0.248,3.16,0.426l0.053,0.018c0.658,0.106,1.314,0.23,1.971,0.373l0.089,0.018l0.125,0.036l0.212,0.035l0,0    l0.87,0.213l0.195,0.053h0.037c0.674,0.178,1.367,0.355,2.058,0.568l0.035,0.018c1.279,0.373,2.557,0.817,3.836,1.314l0.142,0.053    c0.479,0.178,0.958,0.373,1.455,0.586l0.125,0.053h0.018l0.125,0.054l0.231,0.106l0.035,0.018l0.125,0.054l0.123,0.054    l0.054,0.035l0.088,0.035l0.125,0.054l0.142,0.053l0,0l0.125,0.071l0.142,0.054l0.088,0.034l0.037,0.036l0.125,0.054l0.141,0.07    l0.037,0.018l0.088,0.036l0.142,0.071l0.125,0.053l-4.011-9.924l0,0v-0.018l-0.019-0.035l0,0v-0.019L80.13,275.2l0,0v-0.018    l-0.018-0.036l-0.018-0.053v-0.018l-0.035-0.125v-0.018l0,0v-0.035l-0.018-0.018l0,0v-0.035v-0.019v-0.018l-0.018-0.071v-0.018    v-0.018v-0.035l0,0v-0.018v-0.036l0,0v-0.019v-0.035l0,0v-0.018v-0.035l0,0v-0.035v-0.018l0,0v-0.054v-0.036v-0.018v-0.018v-0.018    v-0.018v-0.018l0.018-0.053v-0.036l0,0v-0.019v-0.035l0,0l0.018-0.035v-0.018l0,0v-0.035v-0.019l0,0l0.018-0.036l0,0v-0.035    l0.018-0.018l0,0v-0.035v-0.018h0.018v-0.035v-0.019v-0.018l0.018-0.019v-0.018l0.018-0.018v-0.018l0,0l0.019-0.035v-0.018l0,0    l0.018-0.035v-0.019l0.018-0.018v-0.018l0.018-0.018v-0.019l0.018-0.018l0,0l0.018-0.035v-0.018l0,0l0.018-0.036h0.018v-0.035    l0.018-0.018l0,0l0.019-0.036h0.018v-0.035l0.018-0.018l0.018-0.018v-0.018h0.018v-0.018l0.018-0.036l0.035-0.018v-0.019v-0.018    l0.037-0.018v-0.018l0.018-0.018l0.018-0.018l0,0l0.018-0.035h0.018v-0.018l0.035-0.019v-0.018l0.018-0.019l0.019-0.018l0,0    l0.018-0.018l0.018-0.018l0.018-0.018l0.018-0.018l0.018-0.018l0.018-0.018l0.035-0.036l0,0l0.037-0.019l0.018-0.017l0,0    l0.018-0.018l0.018-0.019h0.018l0.072-0.053l0,0l0.035-0.018L81,272.68l0,0l0.035-0.019v-0.018h0.018l0.037-0.018l0,0l0.053-0.036    l0.018-0.018h0.018h0.018l0.089-0.053l0,0l0.088-0.035l0.019-0.018h0.035c0.125-0.054,0.248-0.09,0.39-0.107l0.037-0.018    l-3.889-9.604l0,0v-0.018l-0.018-0.036l0,0v-0.018l-0.018-0.035l0,0v-0.018l-0.018-0.035l0,0v-0.019l-0.019-0.036l0,0v-0.017    v-0.019v-0.018l0,0l-0.018-0.035v-0.018l0,0l-0.018-0.035v-0.019l0,0v-0.035v-0.018H77.84v-0.036l0,0v-0.018l0,0v-0.035v-0.018    v-0.018l-0.018-0.018v-0.019v-0.018v-0.018v-0.019v-0.018v-0.035l0,0v-0.018v-0.035v-0.018v-0.036l0,0v-0.036v-0.018l0,0v-0.035    v-0.018l0,0v-0.018v-0.018v-0.018l0,0v-0.036v-0.019v-0.017v-0.019v-0.018l0.018-0.018v-0.018v-0.035v-0.036l0,0l0.018-0.018    v-0.018v-0.018v-0.019l0.018-0.018v-0.018v-0.035l0,0v-0.018l0.018-0.035l0,0v-0.019l0.019-0.036l0,0v-0.035l0.018-0.018l0,0    v-0.035l0,0l0.018-0.018v-0.035l0,0l0.018-0.019v-0.036l0.018-0.018L78,261.068l0,0v-0.035h0.018v-0.018l0.018-0.035l0,0    l0.019-0.019v-0.036h0.018v-0.018l0.018-0.018v-0.018l0.018-0.035l0,0l0.018-0.018l0.018-0.018v-0.019l0.018-0.018v-0.018    l0.018-0.018l0.018-0.019l0,0l0.019-0.035l0.018-0.018l0,0l0.018-0.035l0,0l0.018-0.018l0.018-0.019v-0.018l0.018-0.018    l0.018-0.018l0,0l0.018-0.019l0.019-0.018l0.018-0.018l0.018-0.018l0,0l0.018-0.018l0.018-0.035l0,0l0.018-0.018l0.018-0.018    h0.018l0.018-0.019v-0.018h0.019l0.018-0.036l0,0l0.035-0.018l0.018-0.018l0,0l0.018-0.018l0.018-0.018h0.018l0.019-0.018l0,0    l0.018-0.018l0.035-0.019l0,0l0.018-0.018l0.018-0.019l0,0l0.035-0.018l0.018-0.018l0,0l0.037-0.018l0.053-0.035l0,0l0.072-0.035    l0.018-0.018h0.017l0.018-0.019h0.018l0.018-0.018h0.018l0.125-0.054l0.018-0.018h0.035l0.249-0.088h0.035h0.018h0.02l-2.629-6.48    v-0.035l0,0l-0.018-0.018v-0.019l-0.017-0.018c-0.107-0.302-0.143-0.621-0.107-0.923l-1.916-4.758l-0.214-0.551l-0.018-0.035    l-1.881-4.616c-7.528-3.249-8.735-7.173-10.741-13.724l-0.16-0.496l-0.249,0.852c-1.988,6.516-2.966,9.676-10.831,13.332    l-4.046,10.014c0.035,0.338,0,0.692-0.142,1.029l-2.716,6.729l0.372,0.107c1.119,0.443,1.651,1.721,1.207,2.84l-3.887,9.622    l0.479,0.125c1.1,0.443,1.651,1.722,1.208,2.841l-4.048,10.012c3.427-1.509,6.852-2.733,10.297-3.621l0.195-0.053l0.035-0.018    l0.551-0.125l0.16-0.053h0.035l0.179-0.055l0.142-0.035h0.052l0.195-0.053l0.107-0.018l0.087-0.018l0.197-0.054l0.07-0.019    l0.125-0.018l0.195-0.053h0.037l0.16-0.035l0.177-0.035h0.018l0.195-0.054l0.142-0.018l0.035-0.019l0.196-0.035l0.123-0.018    l0.072-0.018l0.195-0.036l0.089-0.018l0.107-0.018l0.195-0.035l0.052-0.019l0.142-0.018l0.195-0.035h0.02l0.177-0.035l0.16-0.035    h0.035l0.195-0.036l0.125-0.019l0.053-0.018l0.196-0.018l0.105-0.018l0.089-0.018l0.195-0.035h0.072l0.125-0.018l0.195-0.036    h0.035l0.16-0.018l0.195-0.036l0,0l0.197-0.018l0.16-0.035h0.035l0.194-0.018l0.107-0.018h0.089l0.195-0.036h0.07l0.125-0.018    l0.195-0.018h0.037l0.142-0.018l0.195-0.018h0.018l0.177-0.019l0.177-0.018l0.019-0.018l0.195-0.018h0.142l0.053-0.018h0.195    l0.107-0.018h0.09l0.195-0.019h0.052l0.143-0.018l0.196-0.018h0.018h0.177l0.177-0.018h0.018l0.195-0.019h0.142h0.054l0.195-0.018    h0.107h0.088l0.197-0.018h0.07h0.125h0.195h0.035L61.489,280.26z M63.957,297.125c0,1.208-0.976,2.184-2.183,2.184    c-1.208,0-2.183-0.976-2.183-2.184v-12.409h-0.02h-0.16l-0.017,0.018h-0.16l-0.16,0.019h-0.052l-0.107,0.018l-0.16,0.018    l-0.319,0.018l-0.16,0.018h-0.053l-0.107,0.018l-0.16,0.019l-0.142,0.018h-0.018l-0.177,0.017l-0.161,0.019h-0.053l-0.107,0.018    c-1.934,0.249-3.887,0.586-5.822,1.065c-2.929,7.208-6.498,14.149-10.811,20.435c-4.12,6.054-8.93,11.521-14.487,16.12    l-0.177,0.141l0.923-0.105c26.718-3.373,30.926-3.906,61.302,0.248c3.283,0.462,6.675-0.674,10.083-2.947    c14.841-10.137,29.958-41.365,38.836-59.686l1.721-3.516l0.055-0.107l0.07-0.123l0.052-0.125l0.055-0.105l0.053-0.125l0.054-0.106    l0.053-0.124l0.07-0.107l1.386-2.822l0.035-0.106l0.052-0.089l0.053-0.089l0.037-0.089l0.018-0.053l0.017-0.035l0.018-0.019    l0.053-0.089v-0.018l0.02-0.035l0.018-0.018l0.018-0.018v-0.019l0.035-0.036v-0.017l0.035-0.036l0,0l0.018-0.035h0.018l0.02-0.035    v-0.019l0.035-0.035l0,0l0.035-0.035l0,0l0.035-0.036l0,0l0.037-0.035l0.018-0.018l0.018-0.018l0.018-0.018l0.018-0.036    l0.052-0.036l0.037-0.018l0.018-0.018l0.018-0.018l0.018-0.018l0.035-0.018l0.018-0.018l0.017-0.018l0.02-0.018l0.035-0.019h0.018    l0.018-0.018l0.018-0.019l0.035-0.018l0.018-0.018h0.019l0.035-0.018l0.018-0.018l0.035-0.018l0,0l0.035-0.018l0.019-0.018    l0.035-0.018h0.018l0.035-0.019h0.018l0.054-0.018l0,0l0.053-0.019l0,0l0.053-0.018l0.319-0.124l0.196-0.071l0.142-0.035    l0.319-0.105l0.07-0.036l0.267-0.089l0.25-0.089l0.07-0.036l0.337-0.105l0.107-0.036l0.212-0.089l0.302-0.106l0.037-0.018    l0.319-0.106l0.16-0.071l0.16-0.053l0.319-0.124l0.035-0.018l0.302-0.107l0.214-0.088l0.087-0.055l0.337-0.123l0.072-0.036    l0.249-0.089l0.265-0.106l0.054-0.018l0.319-0.142l0.125-0.054l0.195-0.071l0.302-0.142l0,0l0.319-0.142l0.195-0.072l0.125-0.053    l0.319-0.142l0.054-0.019l0.248-0.124l0.249-0.106l0.07-0.035l0.319-0.143l0.089-0.035l0.212-0.106l0.284-0.124l0.035-0.018    l0.302-0.143l0.162-0.07l0.14-0.09l0.321-0.142l0.018-0.018l0.284-0.124l0.212-0.107l0.089-0.053l0.319-0.142l0.07-0.054    l0.231-0.106l0.248-0.124l0.054-0.035l0.302-0.16l0.123-0.071l0.179-0.089l0.302-0.16l0,0l0.302-0.159l0.177-0.089l0.125-0.071    l0.302-0.159l0.053-0.035l0.231-0.125l0.23-0.125l0.072-0.053l0.302-0.159l0.105-0.054l0.197-0.124l0.265-0.142l0.018-0.018    l0.586-0.355l0.302-0.16l0.018-0.018l0.267-0.16l0.195-0.124l0.089-0.054l0.302-0.178l0.07-0.053l0.214-0.124l0.25-0.16    l0.035-0.035l0.284-0.177l0.123-0.072l0.16-0.105l0.302-0.195l0,0l0.284-0.178l0.16-0.107l0.125-0.088l0.267-0.195l0.053-0.018    l0.231-0.16l0.212-0.143l0.072-0.053l0.285-0.195l0.087-0.071l0.197-0.124l0.23-0.178H162l0.231-0.16l0.212-0.16l0.018-0.018    l0.249-0.177l0.177-0.124l0.053-0.036l0.231-0.177l0.142-0.107l0.107-0.07l0.23-0.178l0.09-0.071l0.142-0.106l0.247-0.178    l0.055-0.053l0.177-0.143l0.23-0.178h0.017l0.214-0.178l0.212-0.159l0.018-0.018l0.231-0.195l0.177-0.124l0.053-0.053l0.231-0.196    l0.125-0.106l0.105-0.089l0.231-0.177l0.09-0.071l0.14-0.124l0.231-0.195l0.035-0.036l0.197-0.159l0.212-0.195h0.018l0.212-0.195    l0.197-0.16l0.035-0.035l0.212-0.195l0.16-0.125l0.072-0.07l0.212-0.195l0.125-0.107l0.107-0.088l0.212-0.213l0.089-0.072    l0.142-0.123l0.212-0.213l0.035-0.019l0.197-0.177l0.212-0.213l0,0l0.214-0.195l0.177-0.178l0.035-0.036l0.23-0.213l0.142-0.142    l0.072-0.071l0.212-0.214l0.107-0.088l0.107-0.125l0.212-0.213l0.072-0.053l0.141-0.16l0.214-0.213l0.035-0.035l0.177-0.178    l0.197-0.213l0.018-0.018l0.212-0.213l0.16-0.178l0.054-0.035l0.195-0.231l0.142-0.142l0.07-0.071l0.214-0.231l0.088-0.105    l0.107-0.125l0.212-0.213l0.072-0.07l0.142-0.16l0.195-0.23l0.035-0.036l0.16-0.195l0.214-0.23l0,0l0.194-0.231l0.177-0.195    l0.035-0.035l0.197-0.23l0.125-0.16l0.07-0.088l0.195-0.231l0.107-0.124l0.107-0.106l0.195-0.249l0.053-0.07l0.142-0.16    c-7.403-2.557-14.38-6.355-20.878-11.54l-0.142-0.089c-6.658-5.344-12.817-12.161-18.374-20.611    c-9.285,12.747-18.844,24.819-34.22,23.008c-2.876,7.492-6.408,13.209-10.369,17.736c-3.799,4.314-7.988,7.527-12.41,10.102    l1.936,4.758l0,0v0.035h0.018v0.018l0,0l0.054,0.16v0.035c0.035,0.107,0.053,0.23,0.07,0.338v0.018v0.018v0.018v0.018v0.018v0.019    c0.018,0.106,0.018,0.213,0,0.319l4.119,10.173v0.035l0.019,0.018v0.019v0.018l0.018,0.018v0.018v0.018l0.018,0.018l0,0v0.019    l0.018,0.035l0,0v0.018l0.018,0.036l0,0v0.035v0.018v0.018l0.018,0.018v0.018v0.018v0.036l0,0l0.018,0.019v0.018v0.018l0,0v0.035    v0.018v0.018l0.018,0.018v0.018v0.019v0.036l0,0v0.035v0.018l0,0v0.035v0.018v0.018v0.036l0,0v0.018v0.035v0.036v0.018v0.018    v0.018v0.018v0.019v0.035l0,0v0.036v0.018l0,0l-0.018,0.035v0.018v0.018v0.036l0,0l-0.018,0.017v0.036l0,0v0.036v0.018    l-0.018,0.018v0.018l0,0v0.035l-0.018,0.018v0.018v0.036h-0.018v0.054l0,0l-0.018,0.035v0.018l-0.018,0.018v0.018v0.019    l-0.019,0.018v0.019v0.018l-0.018,0.018l-0.018,0.018v0.018l-0.018,0.035l0,0v0.018l-0.018,0.018v0.019l-0.018,0.035l0,0    l-0.018,0.018l-0.018,0.036l0,0l-0.019,0.035l0,0l-0.018,0.018l-0.018,0.035l0,0l-0.053,0.09l0,0l-0.018,0.035l0,0l-0.018,0.018    l-0.018,0.018v0.018h-0.019l-0.018,0.035l0,0l-0.018,0.019l-0.018,0.018l0,0l-0.018,0.036h-0.018v0.018l-0.018,0.018l-0.018,0.018    l0,0l-0.02,0.018l-0.017,0.018v0.018l-0.035,0.018l0,0l-0.018,0.019l-0.018,0.018l0,0l-0.018,0.019l-0.018,0.018l0,0l-0.018,0.018    l-0.02,0.018l-0.035,0.018l-0.018,0.018l0,0l-0.018,0.018l-0.018,0.018l0,0l-0.035,0.018l-0.02,0.019l0,0l-0.018,0.018h-0.018    v0.018h-0.035l-0.018,0.018l0,0l-0.018,0.019l-0.018,0.018h-0.018l-0.02,0.018h-0.018v0.018H84.64l-0.017,0.018l0,0l-0.018,0.018    h-0.018l-0.018,0.019h-0.02l-0.018,0.018l0,0l-0.053,0.018l0,0l-0.035,0.018l-0.072,0.036h-0.018    c-0.107,0.053-0.229,0.088-0.354,0.105l3.941,9.729v0.018l0.018,0.036l0,0l0.018,0.035v0.018l0,0l0.018,0.035l0,0v0.035    l0.018,0.019v0.018v0.018l0.018,0.089l0.019,0.035l0,0v0.036v0.018h0.018v0.106h0.018v0.018v0.035l0,0v0.036v0.018l0,0v0.036    v0.035l0,0v0.035l0,0v0.018v0.035l0,0v0.036v0.019v0.018v0.053v0.035l0,0v0.036v0.018v0.019v0.018v0.017v0.019l-0.018,0.035l0,0    v0.035v0.018l0,0l-0.018,0.036v0.018v0.018v0.036l0,0l-0.019,0.018v0.035l0,0l-0.018,0.035v0.019v0.017v0.019l-0.018,0.018v0.019    v0.018l-0.018,0.018v0.035l0,0l-0.018,0.018v0.035l-0.018,0.036v0.018h-0.018v0.036l0,0l-0.018,0.035l-0.018,0.018l0,0    l-0.019,0.035v0.018v0.019l-0.018,0.018l-0.018,0.036l-0.018,0.018v0.018l0,0l-0.018,0.018v0.018l-0.018,0.018l-0.018,0.018l0,0    l-0.018,0.036v0.018h-0.02l-0.017,0.035l0,0l-0.018,0.019v0.018l-0.018,0.018l-0.018,0.035l-0.018,0.018l-0.018,0.019l0,0    l-0.018,0.018l-0.018,0.018v0.018l-0.02,0.018l-0.018,0.019l0,0l-0.017,0.018l-0.018,0.018v0.018l-0.035,0.018l0,0l-0.018,0.018    l-0.018,0.018l0,0l-0.02,0.018l-0.018,0.019l0,0l-0.035,0.036l-0.07,0.07h-0.018l-0.02,0.018l-0.018,0.018l0,0l-0.018,0.018    l-0.035,0.018l0,0l-0.035,0.036l-0.037,0.019c-0.123,0.07-0.248,0.159-0.407,0.212H86.7v0.019h-0.037    c-0.105,0.035-0.23,0.07-0.354,0.088l-0.053,0.019l4.189,10.386l0.019,0.018v0.035l0.018,0.035l0.018,0.035v0.019h0.018v0.036    l0.018,0.035l0.053,0.178v0.018l0.054,0.195l0,0v0.035v0.018l0,0c0.07,0.479-0.037,0.994-0.302,1.438    c-0.621,1.013-1.971,1.332-3,0.711c-1.741-1.065-3.462-2.006-5.201-2.841h-0.02l-0.195-0.089l-0.177-0.088l-0.018-0.019    l-0.214-0.089l-0.177-0.088H81.32l-0.195-0.09l-0.177-0.088H80.93l-0.214-0.09l-0.177-0.088h-0.018l-0.195-0.089l-0.179-0.071    l-0.018-0.018l-0.212-0.071l-0.177-0.089h-0.018l-0.197-0.088l-0.177-0.071h-0.018l-0.212-0.089l-0.179-0.07h-0.018l-0.372-0.143    l-0.018-0.018l-0.214-0.071l-0.177-0.071l-0.018-0.018l-0.195-0.071l-0.177-0.053l-0.019-0.019l-0.212-0.07l-0.16-0.053    l-0.035-0.018l-0.374-0.125h-0.018l-0.194-0.071l-0.177-0.054l-0.037-0.018l-0.195-0.07l-0.177-0.054h-0.018l-0.195-0.071    l-0.179-0.053h-0.035l-0.195-0.071l-0.177-0.053h-0.018l-0.196-0.071l-0.177-0.035l-0.035-0.019l-0.195-0.053l-0.179-0.054h-0.018    l-0.195-0.053l-0.177-0.053h-0.018l-0.197-0.055l-0.195-0.053h-0.018l-0.195-0.053l-0.177-0.054h-0.019l-0.195-0.054l-0.195-0.035    v-0.018l-0.214-0.035l-0.177-0.054H72.55l-0.372-0.089H72.16l-0.197-0.035l-0.195-0.054h-0.017l-0.195-0.035l-0.179-0.036H71.36    l-0.586-0.123h-0.018l-0.177-0.036h-0.018l-0.195-0.036l-0.196-0.035l0,0l-0.195-0.035l-0.195-0.035h-0.018l-0.197-0.035    l-0.195-0.019l0,0l-0.194-0.036l-0.195-0.035l0,0l-0.214-0.018l-0.177-0.035h-0.018l-0.195-0.018l-0.196-0.036l0,0l-0.212-0.018    l-0.177-0.019h-0.018l-0.196-0.034l-0.195-0.019l0,0l-0.195-0.018l-0.197-0.018h-0.018l-0.194-0.018l-0.177-0.018h-0.018    l-0.197-0.018l-0.195-0.019l0,0l-0.212-0.018l-0.177-0.018h-0.018H65.59l-0.195-0.018l0,0l-0.195-0.019l-0.196-0.018l0,0h-0.212    l-0.195-0.018l0,0H64.4h-0.194l0,0l-0.195-0.018h-0.055V297.125z M166.739,317.969l0.641-1.545l0.549-1.367l0,0l0.018-0.054l0,0    l0.019-0.053l0,0l0.035-0.054l0,0l0.018-0.053l0,0l0.018-0.036l0,0l0.035-0.053l0,0l0.037-0.054l0,0l0.018-0.035l0,0l0.035-0.036    l0,0l0.018-0.053h0.018l0.018-0.036l0,0l0.035-0.053l0,0l0.037-0.035l0,0l0.035-0.035l0,0l0.035-0.036l0,0l0.035-0.054l0,0    l0.037-0.035l0,0l0.035-0.035l0,0l0.035-0.035l0,0l0.053-0.019l0,0l0.037-0.036l0,0l0.035-0.035l0,0l0.035-0.035h0.018    l0.035-0.035l0,0l0.037-0.018h0.018l0.035-0.036l0,0l0.035-0.018l0,0l0.055-0.036l0,0l0.035-0.018h0.018l0.035-0.018l0,0    l0.055-0.035l0,0l0.035-0.018l0,0l0.247-0.107l0,0l0.232-0.105l0,0l0.231-0.107l0,0l0.442-0.213l0.409-0.213l0,0l0.391-0.213l0,0    l0.177-0.106l0.195-0.106l0,0l0.16-0.107l0.177-0.105l0,0l0.16-0.106l0,0l0.162-0.106l0.16-0.125l0.142-0.105l0.302-0.214    l0.123-0.106l0,0l0.142-0.106l0,0l0.125-0.124l0,0l0.125-0.107l0,0l0.125-0.105l0,0l0.212-0.23l0,0l0.107-0.125l0,0l0.107-0.107    l0,0l0.105-0.123l0,0l0.089-0.125l0,0l0.107-0.124l0.087-0.106v-0.018l0.09-0.107v-0.018l0.087-0.105v-0.018l0.09-0.107v-0.018    l0.07-0.125l0,0l0.09-0.123l0,0l0.07-0.125v-0.018l0.072-0.124l0.07-0.124v-0.018l0.072-0.125l0,0l0.07-0.143l0,0l0.072-0.142l0,0    l0.07-0.142l0,0l0.054-0.143l0,0l0.07-0.142l0,0l0.053-0.159l0,0l0.072-0.143l0,0l0.053-0.16l0,0l0.054-0.142v-0.018l0.053-0.142    v-0.019l0.07-0.142v-0.018l0.054-0.16l0,0l0.053-0.16l0,0l0.053-0.178l0,0l0.054-0.159l0,0l0.053-0.178l0,0l0.072-0.178l0,0    l0.053-0.177l0,0l0.053-0.178l0,0l0.054-0.195l0,0l0.07-0.178l0,0l0.054-0.195l0,0l0.053-0.195l0,0l0.035-0.071l0,0l0.018-0.089    l0,0l0.018-0.07l0,0l0.018-0.071l0,0l0.037-0.071l0,0l0.018-0.088l0.018-0.072l0,0l0.035-0.07l0,0l0.018-0.089l0,0l0.018-0.071    l0.037-0.07v-0.019l0.017-0.071l0.018-0.07l0.035-0.089l0.018-0.071l0.035-0.088l0.02-0.09l0.035-0.07l0.018-0.09l0.035-0.07    l0.018-0.089l0.018-0.089l0.037-0.07l0.018-0.089l0.035-0.089l0.018-0.089l0.035-0.089l0.037-0.07l0.018-0.09l0.035-0.088    l0.017-0.089l0.035-0.089l0,0l0.035-0.089l0.02-0.089l0,0l0.035-0.089l0,0l0.035-0.089l0,0l0.035-0.088l0,0l0.018-0.107    l0.037-0.089l0.035-0.089l0,0l0.035-0.088l0,0l0.035-0.09l0.018-0.105l0.037-0.09l0.035-0.088l0.035-0.107l0.035-0.088    l0.037-0.107l0,0l0.035-0.088l0,0l0.035-0.106l0,0l0.035-0.089l0,0l0.037-0.106l0.035-0.089l0,0l0.035-0.107l0.035-0.105l0,0    l0.037-0.09l0,0l0.035-0.105l0.035-0.106l0.035-0.106l0.054-0.089l0.035-0.106l0.035-0.107l0.035-0.105l0.054-0.107    c0.425-1.118,1.687-1.668,2.804-1.242c0.604,0.23,1.03,0.692,1.242,1.242l0.037,0.09l0.035,0.105l0.035,0.09l0.035,0.088    l0.037,0.106l0.035,0.089l0,0l0.035,0.089l0,0l0.035,0.089l0.037,0.106l0.035,0.089l0.035,0.088l0,0l0.035,0.09l0.018,0.088l0,0    l0.037,0.09l0.035,0.105l0,0l0.035,0.09l0,0l0.035,0.088l0.018,0.089h0.017l0.02,0.089l0,0l0.035,0.089l0,0l0.035,0.089l0,0    l0.018,0.089h0.018l0.018,0.089l0,0l0.037,0.088l0,0l0.035,0.071v0.019l0.018,0.07l0,0l0.035,0.089l0,0l0.018,0.089l0,0    l0.037,0.089l0,0l0.035,0.089l0,0l0.018,0.07v0.018l0.035,0.072l0,0l0.018,0.088l0,0l0.037,0.089l0,0l0.018,0.071l0.018,0.018    l0.018,0.071l0,0l0.035,0.089l0,0l0.018,0.07v0.018l0.035,0.072l0,0l0.019,0.088l0,0l0.035,0.071l0,0l0.018,0.089l0,0l0.018,0.07    l0.018,0.019l0.018,0.071l0,0l0.018,0.07v0.018l0.037,0.071l0,0l0.018,0.071v0.018l0.018,0.07l0,0l0.035,0.072v0.018l0.018,0.07    l0,0l0.035,0.071l0,0l0.019,0.089l0,0l0.018,0.07l0,0l0.035,0.071v0.019l0.018,0.07l0,0l0.018,0.071l0,0l0.035,0.071v0.018    l0.019,0.071l0,0l0.018,0.071l0,0l0.035,0.07l0,0l0.018,0.07l0,0l0.018,0.072v0.018l0.018,0.07h0.018l0.018,0.071l0,0l0.054,0.195    l0,0l0.07,0.195l0,0l0.055,0.195l0,0l0.052,0.195l0,0l0.07,0.195l0,0l0.054,0.178l0,0l0.053,0.194l0,0l0.072,0.178l0,0    l0.052,0.178l0,0l0.053,0.178l0,0l0.072,0.178l0,0l0.052,0.178l0,0l0.055,0.16v0.018l0.07,0.159l0,0l0.052,0.16l0,0l0.072,0.159    v0.018l0.053,0.143v0.018l0.072,0.16l0,0l0.07,0.143v0.018l0.052,0.142l0,0l0.072,0.159l0,0l0.07,0.143l0,0l0.072,0.16l0,0    l0.07,0.142l0,0l0.072,0.142l0,0l0.088,0.143l0,0l0.072,0.142l0,0l0.088,0.143l0.072,0.142l0,0l0.088,0.143l0,0l0.089,0.123l0,0    l0.089,0.143l0,0l0.088,0.125l0,0l0.089,0.124v0.018l0.107,0.106v0.018l0.105,0.125l0,0l0.089,0.123l0,0l0.125,0.125l0,0    l0.212,0.23l0.125,0.125l0.125,0.106v0.017l0.105,0.107l0.142,0.106l0,0l0.125,0.124l0.142,0.107l0.142,0.105l0,0l0.142,0.106l0,0    l0.142,0.106l0,0l0.16,0.107l0,0l0.16,0.105l0,0l0.319,0.214l0.534,0.302l0.194,0.089l0,0l0.177,0.106h0.018l0.197,0.088    l0.195,0.107l0,0l0.212,0.088l0,0l0.214,0.09l0,0l0.212,0.088l0,0l0.231,0.089l0,0l0.053,0.036l0,0l0.053,0.018l0,0l0.054,0.018    l0,0l0.053,0.035l0,0l0.035,0.018h0.018l0.037,0.036l0,0l0.053,0.035l0,0l0.053,0.019l0,0l0.037,0.035l0,0l0.053,0.035l0,0    l0.035,0.035l0,0l0.053,0.036l0,0l0.037,0.036l0,0l0.035,0.035l0,0l0.053,0.035l0,0l0.035,0.035l0,0l0.037,0.035l0,0l0.035,0.055    l0,0l0.035,0.035l0,0l0.035,0.035l0,0l0.037,0.053l0,0l0.035,0.036l0,0l0.018,0.053h0.018l0.018,0.036l0,0l0.035,0.053l0,0    l0.02,0.036h0.018l0.017,0.053l0,0l0.018,0.054l0,0l0.035,0.035l0,0l0.018,0.054l0,0l0.018,0.053l0,0l0.02,0.054h0.018    l1.207,2.982c2.396,0.443,4.935,0.977,7.775,1.58c5.096,1.083,11.167,2.379,19.049,3.692c7.74,1.278,15.64,1.226,23.54,1.153    l5.061-0.053c14.255-5.077,26.009-29.559,33.926-46.034c1.225-2.574,2.362-4.953,3.462-7.137c0.248-0.515,0.691-0.94,1.278-1.154    c8.256-2.751,15.534-7.083,21.623-13.315c6.127-6.248,11.061-14.451,14.63-24.925c0.267-0.764,0.923-1.35,1.774-1.456    c6.463-0.887,12.641-2.592,18.5-5.219c-6.428-3.16-12.587-7.066-18.199-12.57c-6.496-6.391-12.23-14.877-16.705-26.736    c-20.327,2.681-32.879-13.581-45.146-30.482c-9.072,13.99-19.369,24.57-30.714,32.188c-11.699,7.882-24.517,12.586-38.224,14.646    c-4.687,13.297-11.023,23.984-18.765,32.417l-0.053,0.071l-0.195,0.195c-0.461,0.496-0.905,0.994-1.384,1.455    c-0.392,0.409-0.8,0.816-1.19,1.208l-0.018,0.018l-0.249,0.23l-0.16,0.16l-0.107,0.106l-0.532,0.496l-0.197,0.178l-0.07,0.072    l-0.267,0.248l-0.07,0.07l-0.197,0.178l-0.23,0.195l-0.052,0.054l-0.267,0.249l-0.089,0.088l-0.177,0.143l-0.249,0.23    l-0.035,0.018l-0.267,0.23l-0.123,0.125l-0.16,0.125l-0.267,0.23l0,0l-0.284,0.23l-0.16,0.143l-0.107,0.105l-0.284,0.23    l-0.035,0.019l-0.249,0.213l-0.177,0.142l-0.105,0.071l-0.267,0.231l-0.072,0.053l-0.212,0.178l-0.231,0.178l-0.053,0.053    l-0.284,0.213l-0.107,0.071l-0.177,0.159l-0.265,0.178l-0.037,0.036l-0.284,0.213l-0.123,0.089l-0.746,0.55l-0.142,0.125    l-0.142,0.089l-0.284,0.213l-0.035,0.018l-0.461,0.32l-0.089,0.088l-0.816,0.551l-0.054,0.035l-0.284,0.195l-0.123,0.089    l-0.444,0.284l-0.018,0.018l-0.481,0.302l-0.087,0.071l-0.284,0.177l-0.09,0.054l-0.461,0.302l-0.035,0.018l-0.444,0.284    l-0.142,0.089l-0.302,0.178l-0.035,0.018l-0.249,0.159l-0.212,0.143l-0.089,0.035l-0.302,0.178l-0.087,0.053l-0.214,0.125    l-0.763,0.443l-0.125,0.071l-0.302,0.178l-0.053,0.018l-0.871,0.479l-0.105,0.07l-0.197,0.09l-1.225,0.656l-0.07,0.035    l-1.474,0.746h-0.018l-0.923,0.443l-0.089,0.036c-2.699,1.278-5.485,2.415-8.361,3.392l-0.267,0.531l-2.876,5.948    c-6.408,13.421-16.917,35.347-28.804,50.117l-0.533,0.64l-0.053,0.07c-3.976,4.9-8.112,8.983-12.285,11.629    c7.102,0.586,15.765,0.781,24.251,0.496c8.993-0.301,17.816-1.171,24.419-2.68l2.292-0.516c3.533-0.869,6.675-1.615,9.515-2.219    C162.426,318.749,164.646,318.323,166.739,317.969z M179.772,347.012l0.282-0.035l0.214,0.018    c5.627-0.088,11.237,1.012,16.847,3.533l-2.787-6.889c-0.214-0.55-0.214-1.207,0.07-1.775c0.249-0.479,0.639-0.834,1.1-1.029    l-2.928-7.226c-0.212-0.55-0.212-1.189,0.089-1.775c0.212-0.462,0.586-0.799,1.011-0.993l-1.917-4.741    c-0.107-0.284-0.16-0.585-0.16-0.905l-1.723-4.296l-0.018-0.019l-0.018-0.035l-0.017-0.07l-1.314-3.268h-0.018l-0.248-0.106l0,0    l-0.267-0.124l0,0l-0.249-0.124l0,0l-0.23-0.106h-0.02l-0.229-0.125l-0.232-0.123l0,0l-0.23-0.125l0,0l-0.214-0.106l0,0    l-0.212-0.124l0,0l-0.212-0.125l0,0l-0.196-0.123h-0.018l-0.195-0.143l0,0l-0.195-0.125l-0.177-0.124l0,0l-0.179-0.124l0,0    l-0.177-0.143l0,0l-0.177-0.123l-0.177-0.143l0,0l-0.16-0.125l0,0l-0.16-0.142l0,0l-0.143-0.142h-0.017l-0.143-0.125l-0.142-0.142    l-0.142-0.142l-0.142-0.143l-0.142-0.143l0,0l-0.125-0.142l-0.125-0.159l-0.125-0.143l-0.123-0.16l-0.107-0.142l-0.125-0.159l0,0    l-0.107-0.143l-0.105-0.16l-0.107-0.159l-0.107-0.159l-0.087-0.16l-0.107-0.16v-0.018l-0.089-0.16l0,0l-0.087-0.16l-0.09-0.177    l-0.087-0.16l0,0l-0.09-0.177l-0.087-0.178l0,0l-0.09-0.178l-0.072-0.178l0,0l-0.088-0.178l-0.072-0.178l-0.07-0.195l0,0    l-0.16-0.373l-0.142-0.39l0,0l-0.072-0.195l0,0l-0.07-0.195l0,0l-0.07-0.195l0,0l-0.072-0.213l0,0l-0.07-0.195l0,0l-0.054-0.214    l0,0l-0.07-0.213l0,0l-0.072-0.213l-0.07-0.213l0,0l-0.072-0.213l-0.07-0.23l-0.053,0.23l0,0l-0.142,0.443l0,0l-0.072,0.213l0,0    l-0.143,0.409l0,0l-0.052,0.213l0,0l-0.072,0.195l0,0l-0.07,0.195v0.018l-0.072,0.178v0.018l-0.07,0.178v0.018l-0.07,0.177l0,0    l-0.142,0.373l0,0l-0.142,0.373l0,0l-0.072,0.178l0,0l-0.088,0.178l0,0l-0.072,0.16v0.018l-0.07,0.159l0,0l-0.179,0.337l0,0    l-0.07,0.16l0,0l-0.089,0.16v0.018l-0.088,0.143v0.018l-0.107,0.142v0.018l-0.088,0.142l0,0l-0.107,0.16l0,0l-0.089,0.16l0,0    l-0.105,0.143l0,0l-0.107,0.159l0,0l-0.107,0.142l0,0l-0.23,0.303l0,0l-0.374,0.426l0,0l-0.125,0.142l0,0l-0.284,0.284l0,0    l-0.14,0.125l-0.143,0.142l-0.16,0.142l-0.161,0.125l0,0l-0.16,0.142l0,0l-0.177,0.124v0.018l-0.16,0.125l0,0l-0.177,0.124    l-0.195,0.142l-0.177,0.125l0,0l-0.391,0.266l-0.212,0.143l-0.214,0.124l-0.444,0.267l-0.23,0.124l-0.231,0.124l-0.248,0.143    l-0.249,0.124l-0.249,0.124l-0.267,0.143l-0.265,0.124l-0.284,0.142l-1.314,3.231l-0.018,0.035v0.036l-0.018,0.035l-0.018,0.035    l-1.758,4.367c0.018,0.303-0.035,0.604-0.16,0.906l-1.988,4.936c1.03,0.479,1.509,1.704,1.083,2.787l-2.929,7.225    c1.083,0.463,1.614,1.723,1.172,2.806l-2.841,7.013C168.48,348.539,174.107,347.172,179.772,347.012z M350.185,226.965    l-0.053,0.018l-0.053,0.035l-0.036,0.018c-7.083,3.816-14.646,6.25-22.6,7.475c-3.765,10.51-8.896,18.854-15.197,25.299    c-6.373,6.533-13.953,11.131-22.511,14.113l-3.054,6.32c-6.941,14.451-16.705,34.797-29.169,44.241    c5.717,0.106,10.102,0.319,14.435,0.799c6.248,0.675,12.409,1.864,22.404,3.905c3.922,0.817,7.544,1.402,10.9,1.793    c2.059,0.249,4.012,0.427,5.84,0.551l-0.053-0.088c-0.301-0.586-0.318-1.243-0.089-1.812l4.101-10.173    c-0.035-0.373,0.018-0.728,0.16-1.047l4.846-12.02c0.232-0.551,0.641-0.959,1.155-1.172c6.782-3.018,7.563-5.574,9.231-11.007    l0.018-0.071c0.604-1.953,1.314-4.261,2.379-7.012c0.428-1.119,1.688-1.688,2.805-1.243c0.586,0.231,1.03,0.692,1.244,1.243    c0.993,2.574,1.669,4.793,2.272,6.746c1.704,5.539,2.697,8.77,9.072,11.309c0.584,0.23,0.993,0.675,1.205,1.207l4.884,12.037    c0.125,0.338,0.178,0.692,0.143,1.029l2.414,5.965c1.791-0.213,3.656-0.408,5.609-0.55c2.521-0.178,5.273-0.302,8.29-0.319    l12.854-0.143c8.273-0.124,15.712-0.834,23.045-1.527c11.131-1.064,22.066-2.111,35.63-1.082c3.889,0.302,7.9,0.675,11.771,1.029    c9.018,0.816,17.309,1.58,27.837,1.58h4.084c-6.393-4.634-12.375-12.072-17.506-21.037c-7.58-13.227-13.422-29.896-16.066-45.822    l-1.314-0.479c-15.268-5.61-30.536-11.221-39.536-34.637c-14.914,1.74-24.198-9.942-33.198-22.316    c-6.712,10.155-14.274,17.859-22.583,23.453C353.948,224.799,352.085,225.935,350.185,226.965z M401.262,252.191    c-0.639-1.029-0.319-2.361,0.691-3c1.03-0.639,2.38-0.319,3.001,0.692c0.018,0.019,4.367,6.551,15.144,15.464    c5.734,4.739,9.144,8.663,11.114,12.231c2.076,3.729,2.627,7.013,2.627,10.368c0,5.166,18.623,22.316,18.676,22.369    c0.888,0.799,0.96,2.184,0.161,3.07c-0.817,0.889-2.202,0.959-3.09,0.143c-0.053-0.053-20.115-18.57-20.115-25.582    c0-2.717-0.426-5.344-2.058-8.256c-1.724-3.106-4.794-6.604-10.085-10.988C406.036,259.364,401.279,252.21,401.262,252.191z     M250.873,199.127c0.835-0.869,2.202-0.905,3.073-0.07c0.869,0.834,0.886,2.219,0.053,3.07    c-0.053,0.071-23.116,23.896-35.436,23.896c-3.515,0-7.882,8.521-12.659,17.842c-7.279,14.256-15.41,30.163-27.269,25.777    c-15.552-5.752-28.05,23.844-28.067,23.914c-0.48,1.119-1.758,1.616-2.858,1.154c-1.102-0.461-1.616-1.74-1.154-2.858    c0.035-0.089,14.113-33.482,33.572-26.31c8.254,3.053,15.463-11.025,21.925-23.648c5.396-10.58,10.332-20.238,16.511-20.238    C229.072,221.656,250.802,199.18,250.873,199.127z M178.83,349.16h3.232v6.143h-3.232V349.16z M333.444,350.492h3.248v6.125    h-3.248V350.492z M334.492,346.781l0.265-0.018h0.214c7.403-0.106,14.807,1.438,22.192,4.971l-4.013-9.924    c-0.213-0.551-0.213-1.207,0.089-1.775c0.319-0.656,0.923-1.064,1.597-1.172l-3.889-9.622c-0.212-0.55-0.212-1.189,0.09-1.774    c0.302-0.622,0.871-1.031,1.51-1.154l-2.627-6.48c-0.125-0.32-0.16-0.657-0.143-1.012l-4.031-9.96    c-7.527-3.249-8.734-7.154-10.74-13.705l-0.16-0.497l-0.248,0.834c-1.988,6.516-2.965,9.693-10.829,13.333l-4.048,10.03    c0.035,0.338,0,0.675-0.143,1.012l-2.717,6.729l0.374,0.125c1.118,0.443,1.651,1.704,1.208,2.822l-3.889,9.623l0.479,0.141    c1.101,0.444,1.651,1.705,1.207,2.823l-4.048,10.013C319.596,348.877,327.034,346.977,334.492,346.781z" style="fill-rule:evenodd;clip-rule:evenodd;"/></g></g><g id="Layer_1"/></svg>